<?xml version="1.0" encoding="utf-8"?>
<!-- Generator: Adobe Illustrator 27.5.0, SVG Export Plug-In . SVG Version: 6.00 Build 0)  -->
<svg version="1.1" id="Ñëîé_1" xmlns="http://www.w3.org/2000/svg" xmlns:xlink="http://www.w3.org/1999/xlink" x="0px" y="0px"
	 viewBox="0 0 600 450" style="enable-background:new 0 0 600 450;" xml:space="preserve">
<style type="text/css">
	.st0{fill:url(#SVGID_1_);}
	.st1{fill:url(#SVGID_00000011749838085560781470000017176873586467448226_);}
	.st2{fill:url(#SVGID_00000132789756220462557490000017046235379645496475_);}
	.st3{opacity:0.6;fill:#020230;}
	.st4{fill:url(#SVGID_00000112621692083657548630000003890580837248926385_);}
	.st5{fill:url(#SVGID_00000050662864265446889510000010468223931621457327_);}
	.st6{fill:url(#SVGID_00000084516768747276103140000004773005336526573215_);}
	.st7{fill:url(#SVGID_00000021102582741055680080000003882109433607314845_);}
	.st8{fill:#FFFFFF;}
	.st9{opacity:0.4;}
	.st10{fill:#06033E;}
	.st11{fill:url(#SVGID_00000147185612190942708770000012821355255648382399_);}
	.st12{fill:url(#SVGID_00000023972564551087454500000017778212955271865523_);}
	.st13{opacity:0.4;fill:#06033E;}
	.st14{opacity:0.5;fill:#06033E;}
	.st15{fill:url(#SVGID_00000147901536200250556600000004187585497698969240_);}
	.st16{opacity:0.5;}
	.st17{fill:#2CFFF2;}
	.st18{fill:#F861FC;}
	.st19{fill:url(#SVGID_00000141433764864994803660000002914109887840213162_);}
	.st20{fill:url(#SVGID_00000118368465572630179390000010142820940278285758_);}
	.st21{fill:url(#SVGID_00000023263801131526283180000016059963961395242124_);}
	.st22{fill:url(#SVGID_00000133504275049302061100000011853251779470926000_);}
	.st23{fill:url(#SVGID_00000121980186970098401250000011447882942150176416_);}
	.st24{fill:url(#SVGID_00000029736191293718352680000009441537835662214580_);}
	.st25{fill:url(#SVGID_00000004541104660280306870000013676357956440445599_);}
	.st26{fill:#0C0A78;}
	.st27{fill:url(#SVGID_00000127752120712186842300000011539158478145885582_);}
	.st28{opacity:0.5;fill:#FFFFFF;}
</style>
<linearGradient id="SVGID_1_" gradientUnits="userSpaceOnUse" x1="-4.9248" y1="331.2975" x2="596.234" y2="368.1611">
	<stop  offset="0" style="stop-color:#F861FC"/>
	<stop  offset="1" style="stop-color:#2CFFF2"/>
</linearGradient>
<path class="st0" d="M572.5,379.62c-1.62,0-3.24-0.42-4.69-1.25l-15.8-9.12c-0.92-0.53-1.46-1.48-1.46-2.54
	c0-1.06,0.55-2.01,1.46-2.53l15.8-9.12c2.89-1.67,6.48-1.67,9.37,0l15.8,9.12c0.92,0.53,1.46,1.48,1.46,2.53
	c0,1.06-0.55,2.01-1.46,2.54l-15.8,9.12C575.74,379.2,574.12,379.62,572.5,379.62z M572.5,356.3c-1.19,0-2.38,0.3-3.44,0.92
	l-15.8,9.12c-0.18,0.11-0.21,0.27-0.21,0.36c0,0.09,0.03,0.26,0.21,0.37l15.8,9.12c0,0,0,0,0,0c2.12,1.22,4.75,1.22,6.87,0
	l15.8-9.12c0.18-0.11,0.21-0.27,0.21-0.37c0-0.09-0.03-0.26-0.21-0.36l-15.8-9.12C574.87,356.6,573.69,356.3,572.5,356.3z"/>
<linearGradient id="SVGID_00000059310106926210130200000016289423288740692656_" gradientUnits="userSpaceOnUse" x1="-1.4179" y1="274.1092" x2="599.7408" y2="310.9727">
	<stop  offset="0" style="stop-color:#F861FC"/>
	<stop  offset="1" style="stop-color:#2CFFF2"/>
</linearGradient>
<path style="fill:url(#SVGID_00000059310106926210130200000016289423288740692656_);" d="M527.3,327.85c-2.63,0-5.27-0.68-7.61-2.03
	l-27.19-15.7c-1.3-0.75-2.07-2.08-2.07-3.58c0-1.49,0.77-2.83,2.07-3.58l27.19-15.7c4.69-2.71,10.53-2.71,15.23,0l27.2,15.7
	c1.29,0.75,2.07,2.08,2.07,3.58c0,1.49-0.77,2.83-2.07,3.58l-27.2,15.7C532.57,327.17,529.93,327.85,527.3,327.85z M520.94,323.64
	c3.93,2.26,8.8,2.26,12.73,0l27.19-15.7c0.73-0.42,0.81-1.13,0.81-1.41c0-0.28-0.08-0.98-0.81-1.41l-27.2-15.7
	c-3.93-2.26-8.8-2.26-12.73,0l-27.19,15.7c-0.73,0.42-0.81,1.13-0.81,1.41c0,0.28,0.08,0.98,0.81,1.41L520.94,323.64z"/>
<linearGradient id="SVGID_00000169543655810288445620000001593738056620854205_" gradientUnits="userSpaceOnUse" x1="-4.7494" y1="328.4379" x2="596.4094" y2="365.3014">
	<stop  offset="0" style="stop-color:#F861FC"/>
	<stop  offset="1" style="stop-color:#2CFFF2"/>
</linearGradient>
<path style="fill:url(#SVGID_00000169543655810288445620000001593738056620854205_);" d="M40.95,352.56c-2.63,0-5.27-0.68-7.61-2.03
	l-27.2-15.7c-1.3-0.75-2.07-2.09-2.07-3.58c0-1.49,0.77-2.83,2.07-3.58l27.2-15.7c4.7-2.71,10.53-2.71,15.23,0l27.2,15.7
	c1.3,0.75,2.07,2.08,2.07,3.58c0,1.5-0.77,2.83-2.07,3.58l-27.19,15.7C46.22,351.88,43.58,352.56,40.95,352.56z M40.95,312.43
	c-2.2,0-4.4,0.57-6.36,1.7l-27.2,15.7c-0.73,0.42-0.81,1.13-0.81,1.41c0,0.28,0.08,0.99,0.81,1.41l27.19,15.7l0,0
	c3.93,2.26,8.8,2.26,12.73,0l27.19-15.7c0.74-0.42,0.81-1.13,0.81-1.41c0-0.28-0.08-0.98-0.81-1.41l-27.2-15.7
	C45.35,313,43.15,312.43,40.95,312.43z"/>
<g>
	<path class="st3" d="M316.35,421.05L121.89,308.78c-2.83-1.64-2.48-4.49,0.79-6.38l124.81-72.06c3.27-1.89,8.22-2.09,11.06-0.46
		l194.46,112.27c2.83,1.64,2.48,4.49-0.79,6.38l-124.81,72.06C324.14,422.48,319.19,422.69,316.35,421.05z"/>
	
		<linearGradient id="SVGID_00000145044615323992567300000001974346922886122893_" gradientUnits="userSpaceOnUse" x1="-3.5396" y1="308.7083" x2="597.6192" y2="345.5718">
		<stop  offset="0" style="stop-color:#F861FC"/>
		<stop  offset="1" style="stop-color:#2CFFF2"/>
	</linearGradient>
	<path style="fill:url(#SVGID_00000145044615323992567300000001974346922886122893_);" d="M320.81,441.32
		c-2.27,0-4.45-0.47-6.12-1.43h0L92.75,311.75c-1.81-1.05-2.81-2.55-2.81-4.25c0-1.95,1.35-3.84,3.72-5.21l151.29-88.64
		c4.15-2.4,10.25-2.63,13.88-0.53l221.94,128.14c1.81,1.05,2.81,2.55,2.81,4.25c0,1.95-1.35,3.84-3.72,5.21l-151.29,88.64
		C326.32,440.66,323.5,441.32,320.81,441.32z M252.73,214.21c-2.27,0-4.69,0.55-6.53,1.61L94.92,304.46
		c-1.55,0.9-2.47,2.03-2.47,3.04c0,0.98,0.85,1.67,1.56,2.08l221.94,128.14c0,0,0,0,0,0c2.83,1.64,8.04,1.4,11.37-0.52l151.29-88.64
		c1.55-0.9,2.47-2.03,2.47-3.04c0-0.97-0.85-1.67-1.56-2.08L257.57,215.3C256.31,214.57,254.57,214.21,252.73,214.21z"/>
	
		<radialGradient id="SVGID_00000100368285792909302050000003434329764784398470_" cx="307.3661" cy="35.0748" r="300.6461" gradientUnits="userSpaceOnUse">
		<stop  offset="0" style="stop-color:#F861FC"/>
		<stop  offset="0.4742" style="stop-color:#F861FC"/>
		<stop  offset="0.5088" style="stop-color:#E455FC"/>
		<stop  offset="0.6694" style="stop-color:#891DFA"/>
		<stop  offset="0.7421" style="stop-color:#6507FA"/>
		<stop  offset="0.8016" style="stop-color:#0D0C6F"/>
	</radialGradient>
	<path style="fill:url(#SVGID_00000100368285792909302050000003434329764784398470_);" d="M504.67,153.93L310.98,42.1
		c-1.33-0.77-2.72-0.93-3.95-0.57v0l0,0c-0.01,0-0.01,0-0.02,0.01l-3.59,1.25l1.26,0.3c-0.51,0.6-0.91,1.34-1.18,2.22l-43.8,142.22
		c-1.08,3.53,0.5,7.81,3.55,9.57l193.7,111.83c0.47,0.27,0.95,0.46,1.43,0.58l-0.48,1.05l3.43-1.2l-0.01,0
		c1.4-0.56,2.56-1.81,3.12-3.62l43.8-142.22C509.31,159.97,507.72,155.69,504.67,153.93z"/>
	
		<radialGradient id="SVGID_00000085956566333991129300000011315264202978052775_" cx="123.4845" cy="276.5156" r="328.7539" gradientUnits="userSpaceOnUse">
		<stop  offset="0" style="stop-color:#F861FC"/>
		<stop  offset="0.4742" style="stop-color:#F861FC"/>
		<stop  offset="0.5011" style="stop-color:#E455FC"/>
		<stop  offset="0.626" style="stop-color:#891DFA"/>
		<stop  offset="0.6825" style="stop-color:#6507FA"/>
		<stop  offset="0.7381" style="stop-color:#0D0C6F"/>
	</radialGradient>
	<path style="fill:url(#SVGID_00000085956566333991129300000011315264202978052775_);" d="M450.01,314.23l0.07,0.08L258.75,203.85
		c-2.81-1.62-7.73-1.42-10.98,0.46l-123.61,71.37l-4.12-1.57l1.16,5.78l0.01,0c0.15,0.87,0.76,1.68,1.86,2.32l193.09,111.48
		c2.81,1.62,7.73,1.42,10.98-0.46l123.93-71.55c1.53-0.88,2.41-1.98,2.63-3.06l0.01,0.01l1.18-5.63L450.01,314.23z"/>
	
		<radialGradient id="SVGID_00000006666660803304601300000004009198437081084318_" cx="153.7209" cy="210.5291" r="294.808" gradientUnits="userSpaceOnUse">
		<stop  offset="0" style="stop-color:#F861FC"/>
		<stop  offset="0.0313" style="stop-color:#F861FC"/>
		<stop  offset="0.2213" style="stop-color:#F861FC"/>
		<stop  offset="0.3305" style="stop-color:#CC4AFB"/>
		<stop  offset="0.5029" style="stop-color:#8B28FA"/>
		<stop  offset="0.5843" style="stop-color:#711BFA"/>
		<stop  offset="0.6267" style="stop-color:#6D29F9"/>
		<stop  offset="0.7073" style="stop-color:#614FF8"/>
		<stop  offset="0.8178" style="stop-color:#4F8CF6"/>
		<stop  offset="0.9526" style="stop-color:#35E0F3"/>
		<stop  offset="1" style="stop-color:#2CFFF2"/>
	</radialGradient>
	<path style="fill:url(#SVGID_00000006666660803304601300000004009198437081084318_);" d="M316.35,388.59L121.89,276.32
		c-2.83-1.64-2.48-4.49,0.79-6.38l124.81-72.06c3.27-1.89,8.22-2.09,11.06-0.46l194.46,112.27c2.83,1.64,2.48,4.49-0.79,6.38
		l-124.81,72.06C324.14,390.02,319.19,390.23,316.35,388.59z"/>
	<path class="st8" d="M452.22,314.56l-124.81,72.06c-3.27,1.89-8.22,2.1-11.06,0.46L121.89,274.8c-0.97-0.56-1.53-1.26-1.77-2.02
		c-0.38,1.3,0.17,2.61,1.77,3.53l194.46,112.27c2.83,1.64,7.79,1.43,11.06-0.46l124.81-72.06c2.16-1.25,3.02-2.91,2.56-4.37
		C454.49,312.72,453.65,313.73,452.22,314.56z"/>
	<g class="st9">
		<path class="st10" d="M214.65,258.1l-6.57-3.79c-0.53-0.3-0.46-0.84,0.15-1.19l7.75-4.47c0.61-0.35,1.53-0.39,2.06-0.09l6.57,3.79
			c0.53,0.3,0.46,0.84-0.15,1.19l-7.75,4.47C216.09,258.36,215.17,258.4,214.65,258.1z"/>
		<path class="st10" d="M224.79,263.95l-6.57-3.79c-0.53-0.3-0.46-0.84,0.15-1.19l7.75-4.47c0.61-0.35,1.53-0.39,2.06-0.09
			l6.57,3.79c0.53,0.3,0.46,0.84-0.15,1.19l-7.75,4.47C226.23,264.22,225.31,264.26,224.79,263.95z"/>
		<path class="st10" d="M234.92,269.81l-6.57-3.79c-0.53-0.3-0.46-0.84,0.15-1.19l7.75-4.47c0.61-0.35,1.53-0.39,2.06-0.09
			l6.57,3.79c0.53,0.3,0.46,0.84-0.15,1.19l-7.75,4.47C236.37,270.07,235.45,270.11,234.92,269.81z"/>
		<path class="st10" d="M248.95,264.97l-6.57-3.79c-0.53-0.3-0.46-0.84,0.15-1.19l6.51-3.76c0.61-0.35,1.53-0.39,2.06-0.09
			l6.57,3.79c0.53,0.3,0.46,0.84-0.15,1.19l-6.51,3.76C250.39,265.24,249.47,265.28,248.95,264.97z"/>
		<path class="st10" d="M259.09,270.82l-6.57-3.79c-0.53-0.3-0.46-0.84,0.15-1.19l6.51-3.76c0.61-0.35,1.53-0.39,2.06-0.09
			l6.57,3.79c0.53,0.3,0.46,0.84-0.15,1.19l-6.51,3.76C260.53,271.09,259.61,271.13,259.09,270.82z"/>
		<path class="st10" d="M269.22,276.68l-6.57-3.79c-0.53-0.3-0.46-0.84,0.15-1.19l6.51-3.76c0.61-0.35,1.53-0.39,2.06-0.09
			l6.57,3.79c0.53,0.3,0.46,0.84-0.15,1.19l-6.51,3.76C270.67,276.94,269.75,276.98,269.22,276.68z"/>
		<path class="st10" d="M279.36,282.53l-6.57-3.79c-0.53-0.3-0.46-0.84,0.15-1.19l6.51-3.76c0.61-0.35,1.53-0.39,2.06-0.09
			l6.57,3.79c0.53,0.3,0.46,0.84-0.15,1.19l-6.51,3.76C280.81,282.8,279.89,282.84,279.36,282.53z"/>
		<path class="st10" d="M289.5,288.39l-6.57-3.79c-0.53-0.3-0.46-0.84,0.15-1.19l6.51-3.76c0.61-0.35,1.53-0.39,2.06-0.09l6.57,3.79
			c0.53,0.3,0.46,0.84-0.15,1.19l-6.51,3.76C290.95,288.65,290.03,288.69,289.5,288.39z"/>
		<path class="st10" d="M299.64,294.24l-6.57-3.79c-0.53-0.3-0.46-0.84,0.15-1.19l6.51-3.76c0.61-0.35,1.53-0.39,2.06-0.09
			l6.57,3.79c0.53,0.3,0.46,0.84-0.15,1.19l-6.51,3.76C301.09,294.51,300.17,294.54,299.64,294.24z"/>
		<path class="st10" d="M309.78,300.09l-6.57-3.79c-0.53-0.3-0.46-0.84,0.15-1.19l6.51-3.76c0.61-0.35,1.53-0.39,2.06-0.09
			l6.57,3.79c0.53,0.3,0.46,0.84-0.15,1.19l-6.51,3.76C311.23,300.36,310.31,300.4,309.78,300.09z"/>
		<path class="st10" d="M319.92,305.95l-6.57-3.79c-0.53-0.3-0.46-0.84,0.15-1.19l6.51-3.76c0.61-0.35,1.53-0.39,2.06-0.09
			l6.57,3.79c0.53,0.3,0.46,0.84-0.15,1.19l-6.51,3.76C321.37,306.21,320.45,306.25,319.92,305.95z"/>
		<path class="st10" d="M330.06,311.8l-6.57-3.79c-0.53-0.3-0.46-0.84,0.15-1.19l6.51-3.76c0.61-0.35,1.53-0.39,2.06-0.09l6.57,3.79
			c0.53,0.3,0.46,0.84-0.15,1.19l-6.51,3.76C331.5,312.07,330.58,312.1,330.06,311.8z"/>
		<path class="st10" d="M340.2,317.65l-6.57-3.79c-0.53-0.3-0.46-0.84,0.15-1.19l6.51-3.76c0.61-0.35,1.53-0.39,2.06-0.09l6.57,3.79
			c0.53,0.3,0.46,0.84-0.15,1.19l-6.51,3.76C341.64,317.92,340.72,317.96,340.2,317.65z"/>
		<path class="st10" d="M263.89,262.2l-6.57-3.79c-0.53-0.3-0.46-0.84,0.15-1.19l6.51-3.76c0.61-0.35,1.53-0.39,2.06-0.09l6.57,3.79
			c0.53,0.3,0.46,0.84-0.15,1.19l-6.51,3.76C265.33,262.47,264.41,262.5,263.89,262.2z"/>
		<path class="st10" d="M253.6,256.26l-6.57-3.79c-0.53-0.3-0.46-0.84,0.15-1.19l6.5-3.76c0.61-0.35,1.53-0.39,2.06-0.09l6.57,3.79
			c0.53,0.3,0.46,0.84-0.15,1.19l-6.51,3.76C255.04,256.53,254.12,256.56,253.6,256.26z"/>
		<path class="st10" d="M243.29,250.31l-14.14-8.16c-0.53-0.3-0.46-0.84,0.15-1.19l6.5-3.76c0.61-0.35,1.53-0.39,2.06-0.09
			l14.14,8.16c0.53,0.3,0.46,0.84-0.15,1.19l-6.51,3.76C244.74,250.57,243.82,250.61,243.29,250.31z"/>
		<path class="st10" d="M250.49,243.07l-11.47-6.62c-0.53-0.3-0.46-0.84,0.15-1.19l6.51-3.76c0.61-0.35,1.53-0.39,2.06-0.09
			l11.47,6.63c0.53,0.3,0.46,0.84-0.15,1.19l-6.51,3.76C251.94,243.34,251.02,243.38,250.49,243.07z"/>
		<path class="st10" d="M274.02,268.05l-6.57-3.79c-0.53-0.3-0.46-0.84,0.15-1.19l6.51-3.76c0.61-0.35,1.53-0.39,2.06-0.09
			l6.57,3.79c0.53,0.3,0.46,0.84-0.15,1.19l-6.51,3.76C275.47,268.32,274.55,268.36,274.02,268.05z"/>
		<path class="st10" d="M284.16,273.91l-6.57-3.79c-0.53-0.3-0.46-0.84,0.15-1.19l6.51-3.76c0.61-0.35,1.53-0.39,2.06-0.09
			l6.57,3.79c0.53,0.3,0.46,0.84-0.15,1.19l-6.51,3.76C285.61,274.17,284.69,274.21,284.16,273.91z"/>
		<path class="st10" d="M294.3,279.76l-6.57-3.79c-0.53-0.3-0.46-0.84,0.15-1.19l6.51-3.76c0.61-0.35,1.53-0.39,2.06-0.09l6.57,3.79
			c0.53,0.3,0.46,0.84-0.15,1.19l-6.51,3.76C295.75,280.03,294.83,280.07,294.3,279.76z"/>
		<path class="st10" d="M304.44,285.61l-6.57-3.79c-0.53-0.3-0.46-0.84,0.15-1.19l6.51-3.76c0.61-0.35,1.53-0.39,2.06-0.09
			l6.57,3.79c0.53,0.3,0.46,0.84-0.15,1.19l-6.51,3.76C305.89,285.88,304.97,285.92,304.44,285.61z"/>
		<path class="st10" d="M314.58,291.47l-6.57-3.79c-0.53-0.3-0.46-0.84,0.15-1.19l6.51-3.76c0.61-0.35,1.53-0.39,2.06-0.09
			l6.57,3.79c0.53,0.3,0.46,0.84-0.15,1.19l-6.51,3.76C316.03,291.73,315.11,291.77,314.58,291.47z"/>
		<path class="st10" d="M324.72,297.32l-6.57-3.79c-0.53-0.3-0.46-0.84,0.15-1.19l6.51-3.76c0.61-0.35,1.53-0.39,2.06-0.09
			l6.57,3.79c0.53,0.3,0.46,0.84-0.15,1.19l-6.51,3.76C326.17,297.59,325.25,297.63,324.72,297.32z"/>
		<path class="st10" d="M334.86,303.18l-6.57-3.79c-0.53-0.3-0.46-0.84,0.15-1.19l6.51-3.76c0.61-0.35,1.53-0.39,2.06-0.09
			l6.57,3.79c0.53,0.3,0.46,0.84-0.15,1.19l-6.51,3.76C336.3,303.44,335.38,303.48,334.86,303.18z"/>
		<path class="st10" d="M345,309.03l-6.57-3.79c-0.53-0.3-0.46-0.84,0.15-1.19l6.51-3.76c0.61-0.35,1.53-0.39,2.06-0.09l6.57,3.79
			c0.53,0.3,0.46,0.84-0.15,1.19l-6.51,3.76C346.44,309.29,345.52,309.33,345,309.03z"/>
		<path class="st10" d="M355.13,314.88l-6.57-3.79c-0.53-0.3-0.46-0.84,0.15-1.19l6.5-3.76c0.61-0.35,1.53-0.39,2.06-0.09l6.57,3.79
			c0.53,0.3,0.46,0.84-0.15,1.19l-6.51,3.76C356.58,315.15,355.66,315.19,355.13,314.88z"/>
		<path class="st10" d="M373.16,325.29l-14.32-8.27c-0.53-0.3-0.46-0.84,0.15-1.19l6.51-3.76c0.61-0.35,1.53-0.39,2.06-0.09
			l14.32,8.27c0.53,0.3,0.46,0.84-0.15,1.19l-6.51,3.76C374.61,325.56,373.69,325.59,373.16,325.29z"/>
		<path class="st10" d="M392.9,313.89l-12.09-6.98c-0.53-0.3-0.46-0.84,0.15-1.19l6.51-3.76c0.61-0.35,1.53-0.39,2.06-0.09
			l12.09,6.98c0.53,0.3,0.46,0.84-0.15,1.19l-6.51,3.76C394.35,314.16,393.42,314.2,392.9,313.89z"/>
		<path class="st10" d="M291.78,266.91l-6.57-3.79c-0.53-0.3-0.46-0.84,0.15-1.19l6.51-3.76c0.61-0.35,1.53-0.39,2.06-0.09
			l6.57,3.79c0.53,0.3,0.46,0.84-0.15,1.19l-6.51,3.76C293.23,267.17,292.31,267.21,291.78,266.91z"/>
		<path class="st10" d="M281.39,260.91l-6.57-3.79c-0.53-0.3-0.46-0.84,0.15-1.19l6.51-3.76c0.61-0.35,1.53-0.39,2.06-0.09
			l6.57,3.79c0.53,0.3,0.46,0.84-0.15,1.19l-6.51,3.76C282.84,261.18,281.92,261.21,281.39,260.91z"/>
		<path class="st10" d="M271,254.91l-6.57-3.79c-0.53-0.3-0.46-0.84,0.15-1.19l6.51-3.76c0.61-0.35,1.53-0.39,2.06-0.09l6.57,3.79
			c0.53,0.3,0.46,0.84-0.15,1.19l-6.51,3.76C272.45,255.18,271.52,255.21,271,254.91z"/>
		<path class="st10" d="M260.61,248.91l-6.57-3.79c-0.53-0.3-0.46-0.84,0.15-1.19l6.51-3.76c0.61-0.35,1.53-0.39,2.06-0.09
			l6.57,3.79c0.53,0.3,0.46,0.84-0.15,1.19l-6.51,3.76C262.05,249.18,261.13,249.21,260.61,248.91z"/>
		<path class="st10" d="M301.92,272.76l-6.57-3.79c-0.53-0.3-0.46-0.84,0.15-1.19l6.51-3.76c0.61-0.35,1.53-0.39,2.06-0.09
			l6.57,3.79c0.53,0.3,0.46,0.84-0.15,1.19l-6.51,3.76C303.37,273.03,302.45,273.07,301.92,272.76z"/>
		<path class="st10" d="M312.06,278.62l-6.57-3.79c-0.53-0.3-0.46-0.84,0.15-1.19l6.51-3.76c0.61-0.35,1.53-0.39,2.06-0.09
			l6.57,3.79c0.53,0.3,0.46,0.84-0.15,1.19l-6.51,3.76C313.5,278.88,312.58,278.92,312.06,278.62z"/>
		<path class="st10" d="M322.2,284.47l-6.57-3.79c-0.53-0.3-0.46-0.84,0.15-1.19l6.51-3.76c0.61-0.35,1.53-0.39,2.06-0.09l6.57,3.79
			c0.53,0.3,0.46,0.84-0.15,1.19l-6.51,3.76C323.64,284.74,322.72,284.77,322.2,284.47z"/>
		<path class="st10" d="M332.33,290.32l-6.57-3.79c-0.53-0.3-0.46-0.84,0.15-1.19l6.51-3.76c0.61-0.35,1.53-0.39,2.06-0.09
			l6.57,3.79c0.53,0.3,0.46,0.84-0.15,1.19l-6.51,3.76C333.78,290.59,332.86,290.63,332.33,290.32z"/>
		<path class="st10" d="M342.47,296.18l-6.57-3.79c-0.53-0.3-0.46-0.84,0.15-1.19l6.51-3.76c0.61-0.35,1.53-0.39,2.06-0.09
			l6.57,3.79c0.53,0.3,0.46,0.84-0.15,1.19l-6.51,3.76C343.92,296.44,343,296.48,342.47,296.18z"/>
		<path class="st10" d="M352.61,302.03l-6.57-3.79c-0.53-0.3-0.46-0.84,0.15-1.19l6.51-3.76c0.61-0.35,1.53-0.39,2.06-0.09
			l6.57,3.79c0.53,0.3,0.46,0.84-0.15,1.19l-6.51,3.76C354.06,302.3,353.14,302.33,352.61,302.03z"/>
		<path class="st10" d="M362.75,307.88l-6.57-3.79c-0.53-0.3-0.46-0.84,0.15-1.19l6.51-3.76c0.61-0.35,1.53-0.39,2.06-0.09
			l6.57,3.79c0.53,0.3,0.46,0.84-0.15,1.19l-6.51,3.76C364.2,308.15,363.28,308.19,362.75,307.88z"/>
		<path class="st10" d="M372.89,313.74l-6.57-3.79c-0.53-0.3-0.46-0.84,0.15-1.19l6.51-3.76c0.61-0.35,1.53-0.39,2.06-0.09
			l6.57,3.79c0.53,0.3,0.46,0.84-0.15,1.19l-6.51,3.76C374.34,314,373.42,314.04,372.89,313.74z"/>
		<path class="st10" d="M383.03,319.59l-6.57-3.79c-0.53-0.3-0.46-0.84,0.15-1.19l6.51-3.76c0.61-0.35,1.53-0.39,2.06-0.09
			l6.57,3.79c0.53,0.3,0.46,0.84-0.15,1.19l-6.51,3.76C384.48,319.86,383.56,319.9,383.03,319.59z"/>
		<path class="st10" d="M286.44,252.43l-6.57-3.79c-0.53-0.3-0.46-0.84,0.15-1.19l6.51-3.76c0.61-0.35,1.53-0.39,2.06-0.09
			l6.57,3.79c0.53,0.3,0.46,0.84-0.15,1.19l-6.51,3.76C287.89,252.7,286.97,252.73,286.44,252.43z"/>
		<path class="st10" d="M276.35,246.61l-6.57-3.79c-0.53-0.3-0.46-0.84,0.15-1.19l6.51-3.76c0.61-0.35,1.53-0.39,2.06-0.09
			l6.57,3.79c0.53,0.3,0.46,0.84-0.15,1.19l-6.51,3.76C277.8,246.87,276.88,246.91,276.35,246.61z"/>
		<path class="st10" d="M266.26,240.78l-6.57-3.79c-0.53-0.3-0.46-0.84,0.15-1.19l6.51-3.76c0.61-0.35,1.53-0.39,2.06-0.09
			l6.57,3.79c0.53,0.3,0.46,0.84-0.15,1.19l-6.51,3.76C267.71,241.05,266.79,241.09,266.26,240.78z"/>
		<path class="st10" d="M256.18,234.96l-6.57-3.79c-0.53-0.3-0.46-0.84,0.15-1.19l6.5-3.76c0.61-0.35,1.53-0.39,2.06-0.09l6.57,3.79
			c0.53,0.3,0.46,0.84-0.15,1.19l-6.51,3.76C257.62,235.22,256.7,235.26,256.18,234.96z"/>
		<path class="st10" d="M266.55,228.97l-6.57-3.79c-0.53-0.3-0.46-0.84,0.15-1.19l2.15-1.24c0.61-0.35,1.53-0.39,2.06-0.09
			l6.57,3.79c0.53,0.3,0.46,0.84-0.15,1.19l-2.15,1.24C268,229.23,267.08,229.27,266.55,228.97z"/>
		<path class="st10" d="M279.71,236.57l-6.57-3.79c-0.53-0.3-0.46-0.84,0.15-1.19l2.15-1.24c0.61-0.35,1.53-0.39,2.06-0.09
			l6.57,3.79c0.53,0.3,0.46,0.84-0.15,1.19l-2.15,1.24C281.16,236.83,280.24,236.87,279.71,236.57z"/>
		<path class="st10" d="M289.76,242.37l-6.57-3.79c-0.53-0.3-0.46-0.84,0.15-1.19l2.15-1.24c0.61-0.35,1.53-0.39,2.06-0.09
			l6.57,3.79c0.53,0.3,0.46,0.84-0.15,1.19l-2.15,1.24C291.21,242.63,290.29,242.67,289.76,242.37z"/>
		<path class="st10" d="M299.81,248.17l-6.57-3.79c-0.53-0.3-0.46-0.84,0.15-1.19l2.15-1.24c0.61-0.35,1.53-0.39,2.06-0.09
			l6.57,3.79c0.53,0.3,0.46,0.84-0.15,1.19l-2.15,1.24C301.26,248.43,300.33,248.47,299.81,248.17z"/>
		<path class="st10" d="M309.85,253.97l-6.57-3.79c-0.53-0.3-0.46-0.84,0.15-1.19l2.15-1.24c0.61-0.35,1.53-0.39,2.06-0.09
			l6.57,3.79c0.53,0.3,0.46,0.84-0.15,1.19l-2.15,1.24C311.3,254.23,310.38,254.27,309.85,253.97z"/>
		<path class="st10" d="M365.94,286.35l-6.57-3.79c-0.53-0.3-0.46-0.84,0.15-1.19l2.15-1.24c0.61-0.35,1.53-0.39,2.06-0.09
			l6.57,3.79c0.53,0.3,0.46,0.84-0.15,1.19l-2.15,1.24C367.39,286.62,366.47,286.65,365.94,286.35z"/>
		<path class="st10" d="M375.99,292.15l-6.57-3.79c-0.53-0.3-0.46-0.84,0.15-1.19l2.15-1.24c0.61-0.35,1.53-0.39,2.06-0.09
			l6.57,3.79c0.53,0.3,0.46,0.84-0.15,1.19l-2.15,1.24C377.43,292.42,376.51,292.45,375.99,292.15z"/>
		<path class="st10" d="M386.03,297.95l-6.57-3.79c-0.53-0.3-0.46-0.84,0.15-1.19l2.15-1.24c0.61-0.35,1.53-0.39,2.06-0.09
			l6.57,3.79c0.53,0.3,0.46,0.84-0.15,1.19l-2.15,1.24C387.48,298.22,386.56,298.25,386.03,297.95z"/>
		<path class="st10" d="M396.08,303.75l-6.57-3.79c-0.53-0.3-0.46-0.84,0.15-1.19l2.15-1.24c0.61-0.35,1.53-0.39,2.06-0.09
			l6.57,3.79c0.53,0.3,0.46,0.84-0.15,1.19l-2.15,1.24C397.53,304.02,396.61,304.06,396.08,303.75z"/>
		<path class="st10" d="M296.58,258.28l-6.57-3.79c-0.53-0.3-0.46-0.84,0.15-1.19l6.51-3.76c0.61-0.35,1.53-0.39,2.06-0.09
			l6.57,3.79c0.53,0.3,0.46,0.84-0.15,1.19l-6.51,3.76C298.03,258.55,297.11,258.59,296.58,258.28z"/>
		<path class="st10" d="M306.72,264.14l-6.57-3.79c-0.53-0.3-0.46-0.84,0.15-1.19l6.51-3.76c0.61-0.35,1.53-0.39,2.06-0.09
			l6.57,3.79c0.53,0.3,0.46,0.84-0.15,1.19l-6.51,3.76C308.17,264.4,307.25,264.44,306.72,264.14z"/>
		<path class="st10" d="M316.86,269.99l-6.57-3.79c-0.53-0.3-0.46-0.84,0.15-1.19l6.51-3.76c0.61-0.35,1.53-0.39,2.06-0.09
			l6.57,3.79c0.53,0.3,0.46,0.84-0.15,1.19l-6.51,3.76C318.3,270.26,317.38,270.29,316.86,269.99z"/>
		<path class="st10" d="M327,275.84l-6.57-3.79c-0.53-0.3-0.46-0.84,0.15-1.19l6.51-3.76c0.61-0.35,1.53-0.39,2.06-0.09l6.57,3.79
			c0.53,0.3,0.46,0.84-0.15,1.19l-6.51,3.76C328.44,276.11,327.52,276.15,327,275.84z"/>
		<path class="st10" d="M337.13,281.7l-6.57-3.79c-0.53-0.3-0.46-0.84,0.15-1.19l6.51-3.76c0.61-0.35,1.53-0.39,2.06-0.09l6.57,3.79
			c0.53,0.3,0.46,0.84-0.15,1.19l-6.51,3.76C338.58,281.96,337.66,282,337.13,281.7z"/>
		<path class="st10" d="M347.27,287.55l-6.57-3.79c-0.53-0.3-0.46-0.84,0.15-1.19l6.51-3.76c0.61-0.35,1.53-0.39,2.06-0.09
			l6.57,3.79c0.53,0.3,0.46,0.84-0.15,1.19l-6.51,3.76C348.72,287.82,347.8,287.86,347.27,287.55z"/>
		<path class="st10" d="M357.41,293.4l-6.57-3.79c-0.53-0.3-0.46-0.84,0.15-1.19l6.51-3.76c0.61-0.35,1.53-0.39,2.06-0.09l6.57,3.79
			c0.53,0.3,0.46,0.84-0.15,1.19l-6.51,3.76C358.86,293.67,357.94,293.71,357.41,293.4z"/>
		<path class="st10" d="M367.55,299.26l-6.57-3.79c-0.53-0.3-0.46-0.84,0.15-1.19l6.51-3.76c0.61-0.35,1.53-0.39,2.06-0.09
			l6.57,3.79c0.53,0.3,0.46,0.84-0.15,1.19l-6.51,3.76C369,299.52,368.08,299.56,367.55,299.26z"/>
		<path class="st10" d="M377.69,305.11l-6.57-3.79c-0.53-0.3-0.46-0.84,0.15-1.19l6.51-3.76c0.61-0.35,1.53-0.39,2.06-0.09
			l6.57,3.79c0.53,0.3,0.46,0.84-0.15,1.19l-6.51,3.76C379.14,305.38,378.22,305.42,377.69,305.11z"/>
		<path class="st10" d="M238.61,259.01l-19.34-11.16c-0.53-0.3-0.46-0.84,0.15-1.19l6.51-3.76c0.61-0.35,1.53-0.39,2.06-0.09
			l19.34,11.16c0.53,0.3,0.46,0.84-0.15,1.19l-6.51,3.76C240.06,259.27,239.14,259.31,238.61,259.01z"/>
		<path class="st10" d="M363.17,330.92l-19.34-11.16c-0.53-0.3-0.46-0.84,0.15-1.19l6.51-3.76c0.61-0.35,1.53-0.39,2.06-0.09
			l19.34,11.16c0.53,0.3,0.46,0.84-0.15,1.19l-6.51,3.76C364.62,331.19,363.7,331.22,363.17,330.92z"/>
		<path class="st10" d="M322.63,320.44l-6.57-3.79c-0.53-0.3-0.46-0.84,0.15-1.19l7.75-4.47c0.61-0.35,1.53-0.39,2.06-0.09
			l6.57,3.79c0.53,0.3,0.46,0.84-0.15,1.19l-7.75,4.47C324.07,320.71,323.15,320.74,322.63,320.44z"/>
		<path class="st10" d="M249,277.93l-10.5-6.06c-0.53-0.3-0.46-0.84,0.15-1.19l7.75-4.47c0.61-0.35,1.53-0.39,2.06-0.09l10.5,6.06
			c0.53,0.3,0.46,0.84-0.15,1.19l-7.75,4.47C250.45,278.2,249.52,278.23,249,277.93z"/>
		<path class="st10" d="M312.86,314.8l-10.5-6.06c-0.53-0.3-0.46-0.84,0.15-1.19l7.75-4.47c0.61-0.35,1.53-0.39,2.06-0.09l10.5,6.06
			c0.53,0.3,0.46,0.84-0.15,1.19l-7.75,4.47C314.3,315.07,313.38,315.1,312.86,314.8z"/>
		<path class="st10" d="M263.63,286.38l-10.5-6.06c-0.53-0.3-0.46-0.84,0.15-1.19l7.75-4.47c0.61-0.35,1.53-0.39,2.06-0.09
			l10.5,6.06c0.53,0.3,0.46,0.84-0.15,1.19l-7.75,4.47C265.07,286.64,264.15,286.68,263.63,286.38z"/>
		<path class="st10" d="M263.15,274.61l45.65,26.36c0.57,0.33,0.57,0.86,0,1.18l-7.9,4.56c-0.57,0.33-1.48,0.33-2.05,0l-45.65-26.36
			L263.15,274.61z"/>
		<path class="st10" d="M350.96,331.05l7.31,4.22c0.43,0.25,0.38,0.69-0.12,0.97l-3.17,1.83c-0.5,0.29-1.25,0.32-1.69,0.07
			l-7.31-4.22c-0.43-0.25-0.38-0.69,0.12-0.97l3.17-1.83C349.77,330.83,350.53,330.8,350.96,331.05z"/>
		<path class="st10" d="M340.74,325.15l7.31,4.22c0.43,0.25,0.38,0.69-0.12,0.97l-3.17,1.83c-0.5,0.29-1.25,0.32-1.69,0.07
			l-7.31-4.22c-0.43-0.25-0.38-0.69,0.12-0.97l3.17-1.83C339.55,324.93,340.31,324.9,340.74,325.15z"/>
		<path class="st10" d="M330.6,319.3l7.31,4.22c0.43,0.25,0.38,0.69-0.12,0.97l-3.17,1.83c-0.5,0.29-1.25,0.32-1.69,0.07l-7.31-4.22
			c-0.43-0.25-0.38-0.69,0.12-0.97l3.17-1.83C329.41,319.08,330.17,319.05,330.6,319.3z"/>
		<path class="st10" d="M346.34,321.92l7.31,4.22c0.43,0.25,0.38,0.69-0.12,0.97l-3.17,1.83c-0.5,0.29-1.25,0.32-1.69,0.07
			l-7.31-4.22c-0.43-0.25-0.38-0.69,0.12-0.97l3.17-1.83C345.15,321.7,345.91,321.67,346.34,321.92z"/>
	</g>
	<g class="st9">
		<path class="st10" d="M214.65,258.1l-6.57-3.79c-0.53-0.3-0.46-0.84,0.15-1.19l7.75-4.47c0.61-0.35,1.53-0.39,2.06-0.09l6.57,3.79
			c0.53,0.3,0.46,0.84-0.15,1.19l-7.75,4.47C216.09,258.36,215.17,258.4,214.65,258.1z"/>
		<path class="st10" d="M224.79,263.95l-6.57-3.79c-0.53-0.3-0.46-0.84,0.15-1.19l7.75-4.47c0.61-0.35,1.53-0.39,2.06-0.09
			l6.57,3.79c0.53,0.3,0.46,0.84-0.15,1.19l-7.75,4.47C226.23,264.22,225.31,264.26,224.79,263.95z"/>
		<path class="st10" d="M234.92,269.81l-6.57-3.79c-0.53-0.3-0.46-0.84,0.15-1.19l7.75-4.47c0.61-0.35,1.53-0.39,2.06-0.09
			l6.57,3.79c0.53,0.3,0.46,0.84-0.15,1.19l-7.75,4.47C236.37,270.07,235.45,270.11,234.92,269.81z"/>
		<path class="st10" d="M248.95,264.97l-6.57-3.79c-0.53-0.3-0.46-0.84,0.15-1.19l6.51-3.76c0.61-0.35,1.53-0.39,2.06-0.09
			l6.57,3.79c0.53,0.3,0.46,0.84-0.15,1.19l-6.51,3.76C250.39,265.24,249.47,265.28,248.95,264.97z"/>
		<path class="st10" d="M259.09,270.82l-6.57-3.79c-0.53-0.3-0.46-0.84,0.15-1.19l6.51-3.76c0.61-0.35,1.53-0.39,2.06-0.09
			l6.57,3.79c0.53,0.3,0.46,0.84-0.15,1.19l-6.51,3.76C260.53,271.09,259.61,271.13,259.09,270.82z"/>
		<path class="st10" d="M269.22,276.68l-6.57-3.79c-0.53-0.3-0.46-0.84,0.15-1.19l6.51-3.76c0.61-0.35,1.53-0.39,2.06-0.09
			l6.57,3.79c0.53,0.3,0.46,0.84-0.15,1.19l-6.51,3.76C270.67,276.94,269.75,276.98,269.22,276.68z"/>
		<path class="st10" d="M279.36,282.53l-6.57-3.79c-0.53-0.3-0.46-0.84,0.15-1.19l6.51-3.76c0.61-0.35,1.53-0.39,2.06-0.09
			l6.57,3.79c0.53,0.3,0.46,0.84-0.15,1.19l-6.51,3.76C280.81,282.8,279.89,282.84,279.36,282.53z"/>
		<path class="st10" d="M289.5,288.39l-6.57-3.79c-0.53-0.3-0.46-0.84,0.15-1.19l6.51-3.76c0.61-0.35,1.53-0.39,2.06-0.09l6.57,3.79
			c0.53,0.3,0.46,0.84-0.15,1.19l-6.51,3.76C290.95,288.65,290.03,288.69,289.5,288.39z"/>
		<path class="st10" d="M299.64,294.24l-6.57-3.79c-0.53-0.3-0.46-0.84,0.15-1.19l6.51-3.76c0.61-0.35,1.53-0.39,2.06-0.09
			l6.57,3.79c0.53,0.3,0.46,0.84-0.15,1.19l-6.51,3.76C301.09,294.51,300.17,294.54,299.64,294.24z"/>
		<path class="st10" d="M309.78,300.09l-6.57-3.79c-0.53-0.3-0.46-0.84,0.15-1.19l6.51-3.76c0.61-0.35,1.53-0.39,2.06-0.09
			l6.57,3.79c0.53,0.3,0.46,0.84-0.15,1.19l-6.51,3.76C311.23,300.36,310.31,300.4,309.78,300.09z"/>
		<path class="st10" d="M319.92,305.95l-6.57-3.79c-0.53-0.3-0.46-0.84,0.15-1.19l6.51-3.76c0.61-0.35,1.53-0.39,2.06-0.09
			l6.57,3.79c0.53,0.3,0.46,0.84-0.15,1.19l-6.51,3.76C321.37,306.21,320.45,306.25,319.92,305.95z"/>
		<path class="st10" d="M330.06,311.8l-6.57-3.79c-0.53-0.3-0.46-0.84,0.15-1.19l6.51-3.76c0.61-0.35,1.53-0.39,2.06-0.09l6.57,3.79
			c0.53,0.3,0.46,0.84-0.15,1.19l-6.51,3.76C331.5,312.07,330.58,312.1,330.06,311.8z"/>
		<path class="st10" d="M340.2,317.65l-6.57-3.79c-0.53-0.3-0.46-0.84,0.15-1.19l6.51-3.76c0.61-0.35,1.53-0.39,2.06-0.09l6.57,3.79
			c0.53,0.3,0.46,0.84-0.15,1.19l-6.51,3.76C341.64,317.92,340.72,317.96,340.2,317.65z"/>
		<path class="st10" d="M263.89,262.2l-6.57-3.79c-0.53-0.3-0.46-0.84,0.15-1.19l6.51-3.76c0.61-0.35,1.53-0.39,2.06-0.09l6.57,3.79
			c0.53,0.3,0.46,0.84-0.15,1.19l-6.51,3.76C265.33,262.47,264.41,262.5,263.89,262.2z"/>
		<path class="st10" d="M253.6,256.26l-6.57-3.79c-0.53-0.3-0.46-0.84,0.15-1.19l6.5-3.76c0.61-0.35,1.53-0.39,2.06-0.09l6.57,3.79
			c0.53,0.3,0.46,0.84-0.15,1.19l-6.51,3.76C255.04,256.53,254.12,256.56,253.6,256.26z"/>
		<path class="st10" d="M243.29,250.31l-14.14-8.16c-0.53-0.3-0.46-0.84,0.15-1.19l6.5-3.76c0.61-0.35,1.53-0.39,2.06-0.09
			l14.14,8.16c0.53,0.3,0.46,0.84-0.15,1.19l-6.51,3.76C244.74,250.57,243.82,250.61,243.29,250.31z"/>
		<path class="st10" d="M250.49,243.07l-11.47-6.62c-0.53-0.3-0.46-0.84,0.15-1.19l6.51-3.76c0.61-0.35,1.53-0.39,2.06-0.09
			l11.47,6.63c0.53,0.3,0.46,0.84-0.15,1.19l-6.51,3.76C251.94,243.34,251.02,243.38,250.49,243.07z"/>
		<path class="st10" d="M274.02,268.05l-6.57-3.79c-0.53-0.3-0.46-0.84,0.15-1.19l6.51-3.76c0.61-0.35,1.53-0.39,2.06-0.09
			l6.57,3.79c0.53,0.3,0.46,0.84-0.15,1.19l-6.51,3.76C275.47,268.32,274.55,268.36,274.02,268.05z"/>
		<path class="st10" d="M284.16,273.91l-6.57-3.79c-0.53-0.3-0.46-0.84,0.15-1.19l6.51-3.76c0.61-0.35,1.53-0.39,2.06-0.09
			l6.57,3.79c0.53,0.3,0.46,0.84-0.15,1.19l-6.51,3.76C285.61,274.17,284.69,274.21,284.16,273.91z"/>
		<path class="st10" d="M294.3,279.76l-6.57-3.79c-0.53-0.3-0.46-0.84,0.15-1.19l6.51-3.76c0.61-0.35,1.53-0.39,2.06-0.09l6.57,3.79
			c0.53,0.3,0.46,0.84-0.15,1.19l-6.51,3.76C295.75,280.03,294.83,280.07,294.3,279.76z"/>
		<path class="st10" d="M304.44,285.61l-6.57-3.79c-0.53-0.3-0.46-0.84,0.15-1.19l6.51-3.76c0.61-0.35,1.53-0.39,2.06-0.09
			l6.57,3.79c0.53,0.3,0.46,0.84-0.15,1.19l-6.51,3.76C305.89,285.88,304.97,285.92,304.44,285.61z"/>
		<path class="st10" d="M314.58,291.47l-6.57-3.79c-0.53-0.3-0.46-0.84,0.15-1.19l6.51-3.76c0.61-0.35,1.53-0.39,2.06-0.09
			l6.57,3.79c0.53,0.3,0.46,0.84-0.15,1.19l-6.51,3.76C316.03,291.73,315.11,291.77,314.58,291.47z"/>
		<path class="st10" d="M324.72,297.32l-6.57-3.79c-0.53-0.3-0.46-0.84,0.15-1.19l6.51-3.76c0.61-0.35,1.53-0.39,2.06-0.09
			l6.57,3.79c0.53,0.3,0.46,0.84-0.15,1.19l-6.51,3.76C326.17,297.59,325.25,297.63,324.72,297.32z"/>
		<path class="st10" d="M334.86,303.18l-6.57-3.79c-0.53-0.3-0.46-0.84,0.15-1.19l6.51-3.76c0.61-0.35,1.53-0.39,2.06-0.09
			l6.57,3.79c0.53,0.3,0.46,0.84-0.15,1.19l-6.51,3.76C336.3,303.44,335.38,303.48,334.86,303.18z"/>
		<path class="st10" d="M345,309.03l-6.57-3.79c-0.53-0.3-0.46-0.84,0.15-1.19l6.51-3.76c0.61-0.35,1.53-0.39,2.06-0.09l6.57,3.79
			c0.53,0.3,0.46,0.84-0.15,1.19l-6.51,3.76C346.44,309.29,345.52,309.33,345,309.03z"/>
		<path class="st10" d="M355.13,314.88l-6.57-3.79c-0.53-0.3-0.46-0.84,0.15-1.19l6.5-3.76c0.61-0.35,1.53-0.39,2.06-0.09l6.57,3.79
			c0.53,0.3,0.46,0.84-0.15,1.19l-6.51,3.76C356.58,315.15,355.66,315.19,355.13,314.88z"/>
		<path class="st10" d="M373.16,325.29l-14.32-8.27c-0.53-0.3-0.46-0.84,0.15-1.19l6.51-3.76c0.61-0.35,1.53-0.39,2.06-0.09
			l14.32,8.27c0.53,0.3,0.46,0.84-0.15,1.19l-6.51,3.76C374.61,325.56,373.69,325.59,373.16,325.29z"/>
		<path class="st10" d="M392.9,313.89l-12.09-6.98c-0.53-0.3-0.46-0.84,0.15-1.19l6.51-3.76c0.61-0.35,1.53-0.39,2.06-0.09
			l12.09,6.98c0.53,0.3,0.46,0.84-0.15,1.19l-6.51,3.76C394.35,314.16,393.42,314.2,392.9,313.89z"/>
		<path class="st10" d="M291.78,266.91l-6.57-3.79c-0.53-0.3-0.46-0.84,0.15-1.19l6.51-3.76c0.61-0.35,1.53-0.39,2.06-0.09
			l6.57,3.79c0.53,0.3,0.46,0.84-0.15,1.19l-6.51,3.76C293.23,267.17,292.31,267.21,291.78,266.91z"/>
		<path class="st10" d="M281.39,260.91l-6.57-3.79c-0.53-0.3-0.46-0.84,0.15-1.19l6.51-3.76c0.61-0.35,1.53-0.39,2.06-0.09
			l6.57,3.79c0.53,0.3,0.46,0.84-0.15,1.19l-6.51,3.76C282.84,261.18,281.92,261.21,281.39,260.91z"/>
		<path class="st10" d="M271,254.91l-6.57-3.79c-0.53-0.3-0.46-0.84,0.15-1.19l6.51-3.76c0.61-0.35,1.53-0.39,2.06-0.09l6.57,3.79
			c0.53,0.3,0.46,0.84-0.15,1.19l-6.51,3.76C272.45,255.18,271.52,255.21,271,254.91z"/>
		<path class="st10" d="M260.61,248.91l-6.57-3.79c-0.53-0.3-0.46-0.84,0.15-1.19l6.51-3.76c0.61-0.35,1.53-0.39,2.06-0.09
			l6.57,3.79c0.53,0.3,0.46,0.84-0.15,1.19l-6.51,3.76C262.05,249.18,261.13,249.21,260.61,248.91z"/>
		<path class="st10" d="M301.92,272.76l-6.57-3.79c-0.53-0.3-0.46-0.84,0.15-1.19l6.51-3.76c0.61-0.35,1.53-0.39,2.06-0.09
			l6.57,3.79c0.53,0.3,0.46,0.84-0.15,1.19l-6.51,3.76C303.37,273.03,302.45,273.07,301.92,272.76z"/>
		<path class="st10" d="M312.06,278.62l-6.57-3.79c-0.53-0.3-0.46-0.84,0.15-1.19l6.51-3.76c0.61-0.35,1.53-0.39,2.06-0.09
			l6.57,3.79c0.53,0.3,0.46,0.84-0.15,1.19l-6.51,3.76C313.5,278.88,312.58,278.92,312.06,278.62z"/>
		<path class="st10" d="M322.2,284.47l-6.57-3.79c-0.53-0.3-0.46-0.84,0.15-1.19l6.51-3.76c0.61-0.35,1.53-0.39,2.06-0.09l6.57,3.79
			c0.53,0.3,0.46,0.84-0.15,1.19l-6.51,3.76C323.64,284.74,322.72,284.77,322.2,284.47z"/>
		<path class="st10" d="M332.33,290.32l-6.57-3.79c-0.53-0.3-0.46-0.84,0.15-1.19l6.51-3.76c0.61-0.35,1.53-0.39,2.06-0.09
			l6.57,3.79c0.53,0.3,0.46,0.84-0.15,1.19l-6.51,3.76C333.78,290.59,332.86,290.63,332.33,290.32z"/>
		<path class="st10" d="M342.47,296.18l-6.57-3.79c-0.53-0.3-0.46-0.84,0.15-1.19l6.51-3.76c0.61-0.35,1.53-0.39,2.06-0.09
			l6.57,3.79c0.53,0.3,0.46,0.84-0.15,1.19l-6.51,3.76C343.92,296.44,343,296.48,342.47,296.18z"/>
		<path class="st10" d="M352.61,302.03l-6.57-3.79c-0.53-0.3-0.46-0.84,0.15-1.19l6.51-3.76c0.61-0.35,1.53-0.39,2.06-0.09
			l6.57,3.79c0.53,0.3,0.46,0.84-0.15,1.19l-6.51,3.76C354.06,302.3,353.14,302.33,352.61,302.03z"/>
		<path class="st10" d="M362.75,307.88l-6.57-3.79c-0.53-0.3-0.46-0.84,0.15-1.19l6.51-3.76c0.61-0.35,1.53-0.39,2.06-0.09
			l6.57,3.79c0.53,0.3,0.46,0.84-0.15,1.19l-6.51,3.76C364.2,308.15,363.28,308.19,362.75,307.88z"/>
		<path class="st10" d="M372.89,313.74l-6.57-3.79c-0.53-0.3-0.46-0.84,0.15-1.19l6.51-3.76c0.61-0.35,1.53-0.39,2.06-0.09
			l6.57,3.79c0.53,0.3,0.46,0.84-0.15,1.19l-6.51,3.76C374.34,314,373.42,314.04,372.89,313.74z"/>
		<path class="st10" d="M383.03,319.59l-6.57-3.79c-0.53-0.3-0.46-0.84,0.15-1.19l6.51-3.76c0.61-0.35,1.53-0.39,2.06-0.09
			l6.57,3.79c0.53,0.3,0.46,0.84-0.15,1.19l-6.51,3.76C384.48,319.86,383.56,319.9,383.03,319.59z"/>
		<path class="st10" d="M286.44,252.43l-6.57-3.79c-0.53-0.3-0.46-0.84,0.15-1.19l6.51-3.76c0.61-0.35,1.53-0.39,2.06-0.09
			l6.57,3.79c0.53,0.3,0.46,0.84-0.15,1.19l-6.51,3.76C287.89,252.7,286.97,252.73,286.44,252.43z"/>
		<path class="st10" d="M276.35,246.61l-6.57-3.79c-0.53-0.3-0.46-0.84,0.15-1.19l6.51-3.76c0.61-0.35,1.53-0.39,2.06-0.09
			l6.57,3.79c0.53,0.3,0.46,0.84-0.15,1.19l-6.51,3.76C277.8,246.87,276.88,246.91,276.35,246.61z"/>
		<path class="st10" d="M266.26,240.78l-6.57-3.79c-0.53-0.3-0.46-0.84,0.15-1.19l6.51-3.76c0.61-0.35,1.53-0.39,2.06-0.09
			l6.57,3.79c0.53,0.3,0.46,0.84-0.15,1.19l-6.51,3.76C267.71,241.05,266.79,241.09,266.26,240.78z"/>
		<path class="st10" d="M256.18,234.96l-6.57-3.79c-0.53-0.3-0.46-0.84,0.15-1.19l6.5-3.76c0.61-0.35,1.53-0.39,2.06-0.09l6.57,3.79
			c0.53,0.3,0.46,0.84-0.15,1.19l-6.51,3.76C257.62,235.22,256.7,235.26,256.18,234.96z"/>
		<path class="st10" d="M266.55,228.97l-6.57-3.79c-0.53-0.3-0.46-0.84,0.15-1.19l2.15-1.24c0.61-0.35,1.53-0.39,2.06-0.09
			l6.57,3.79c0.53,0.3,0.46,0.84-0.15,1.19l-2.15,1.24C268,229.23,267.08,229.27,266.55,228.97z"/>
		<path class="st10" d="M279.71,236.57l-6.57-3.79c-0.53-0.3-0.46-0.84,0.15-1.19l2.15-1.24c0.61-0.35,1.53-0.39,2.06-0.09
			l6.57,3.79c0.53,0.3,0.46,0.84-0.15,1.19l-2.15,1.24C281.16,236.83,280.24,236.87,279.71,236.57z"/>
		<path class="st10" d="M289.76,242.37l-6.57-3.79c-0.53-0.3-0.46-0.84,0.15-1.19l2.15-1.24c0.61-0.35,1.53-0.39,2.06-0.09
			l6.57,3.79c0.53,0.3,0.46,0.84-0.15,1.19l-2.15,1.24C291.21,242.63,290.29,242.67,289.76,242.37z"/>
		<path class="st10" d="M299.81,248.17l-6.57-3.79c-0.53-0.3-0.46-0.84,0.15-1.19l2.15-1.24c0.61-0.35,1.53-0.39,2.06-0.09
			l6.57,3.79c0.53,0.3,0.46,0.84-0.15,1.19l-2.15,1.24C301.26,248.43,300.33,248.47,299.81,248.17z"/>
		<path class="st10" d="M309.85,253.97l-6.57-3.79c-0.53-0.3-0.46-0.84,0.15-1.19l2.15-1.24c0.61-0.35,1.53-0.39,2.06-0.09
			l6.57,3.79c0.53,0.3,0.46,0.84-0.15,1.19l-2.15,1.24C311.3,254.23,310.38,254.27,309.85,253.97z"/>
		<path class="st10" d="M365.94,286.35l-6.57-3.79c-0.53-0.3-0.46-0.84,0.15-1.19l2.15-1.24c0.61-0.35,1.53-0.39,2.06-0.09
			l6.57,3.79c0.53,0.3,0.46,0.84-0.15,1.19l-2.15,1.24C367.39,286.62,366.47,286.65,365.94,286.35z"/>
		<path class="st10" d="M375.99,292.15l-6.57-3.79c-0.53-0.3-0.46-0.84,0.15-1.19l2.15-1.24c0.61-0.35,1.53-0.39,2.06-0.09
			l6.57,3.79c0.53,0.3,0.46,0.84-0.15,1.19l-2.15,1.24C377.43,292.42,376.51,292.45,375.99,292.15z"/>
		<path class="st10" d="M386.03,297.95l-6.57-3.79c-0.53-0.3-0.46-0.84,0.15-1.19l2.15-1.24c0.61-0.35,1.53-0.39,2.06-0.09
			l6.57,3.79c0.53,0.3,0.46,0.84-0.15,1.19l-2.15,1.24C387.48,298.22,386.56,298.25,386.03,297.95z"/>
		<path class="st10" d="M396.08,303.75l-6.57-3.79c-0.53-0.3-0.46-0.84,0.15-1.19l2.15-1.24c0.61-0.35,1.53-0.39,2.06-0.09
			l6.57,3.79c0.53,0.3,0.46,0.84-0.15,1.19l-2.15,1.24C397.53,304.02,396.61,304.06,396.08,303.75z"/>
		<path class="st10" d="M296.58,258.28l-6.57-3.79c-0.53-0.3-0.46-0.84,0.15-1.19l6.51-3.76c0.61-0.35,1.53-0.39,2.06-0.09
			l6.57,3.79c0.53,0.3,0.46,0.84-0.15,1.19l-6.51,3.76C298.03,258.55,297.11,258.59,296.58,258.28z"/>
		<path class="st10" d="M306.72,264.14l-6.57-3.79c-0.53-0.3-0.46-0.84,0.15-1.19l6.51-3.76c0.61-0.35,1.53-0.39,2.06-0.09
			l6.57,3.79c0.53,0.3,0.46,0.84-0.15,1.19l-6.51,3.76C308.17,264.4,307.25,264.44,306.72,264.14z"/>
		<path class="st10" d="M316.86,269.99l-6.57-3.79c-0.53-0.3-0.46-0.84,0.15-1.19l6.51-3.76c0.61-0.35,1.53-0.39,2.06-0.09
			l6.57,3.79c0.53,0.3,0.46,0.84-0.15,1.19l-6.51,3.76C318.3,270.26,317.38,270.29,316.86,269.99z"/>
		<path class="st10" d="M327,275.84l-6.57-3.79c-0.53-0.3-0.46-0.84,0.15-1.19l6.51-3.76c0.61-0.35,1.53-0.39,2.06-0.09l6.57,3.79
			c0.53,0.3,0.46,0.84-0.15,1.19l-6.51,3.76C328.44,276.11,327.52,276.15,327,275.84z"/>
		<path class="st10" d="M337.13,281.7l-6.57-3.79c-0.53-0.3-0.46-0.84,0.15-1.19l6.51-3.76c0.61-0.35,1.53-0.39,2.06-0.09l6.57,3.79
			c0.53,0.3,0.46,0.84-0.15,1.19l-6.51,3.76C338.58,281.96,337.66,282,337.13,281.7z"/>
		<path class="st10" d="M347.27,287.55l-6.57-3.79c-0.53-0.3-0.46-0.84,0.15-1.19l6.51-3.76c0.61-0.35,1.53-0.39,2.06-0.09
			l6.57,3.79c0.53,0.3,0.46,0.84-0.15,1.19l-6.51,3.76C348.72,287.82,347.8,287.86,347.27,287.55z"/>
		<path class="st10" d="M357.41,293.4l-6.57-3.79c-0.53-0.3-0.46-0.84,0.15-1.19l6.51-3.76c0.61-0.35,1.53-0.39,2.06-0.09l6.57,3.79
			c0.53,0.3,0.46,0.84-0.15,1.19l-6.51,3.76C358.86,293.67,357.94,293.71,357.41,293.4z"/>
		<path class="st10" d="M367.55,299.26l-6.57-3.79c-0.53-0.3-0.46-0.84,0.15-1.19l6.51-3.76c0.61-0.35,1.53-0.39,2.06-0.09
			l6.57,3.79c0.53,0.3,0.46,0.84-0.15,1.19l-6.51,3.76C369,299.52,368.08,299.56,367.55,299.26z"/>
		<path class="st10" d="M377.69,305.11l-6.57-3.79c-0.53-0.3-0.46-0.84,0.15-1.19l6.51-3.76c0.61-0.35,1.53-0.39,2.06-0.09
			l6.57,3.79c0.53,0.3,0.46,0.84-0.15,1.19l-6.51,3.76C379.14,305.38,378.22,305.42,377.69,305.11z"/>
		<path class="st10" d="M238.61,259.01l-19.34-11.16c-0.53-0.3-0.46-0.84,0.15-1.19l6.51-3.76c0.61-0.35,1.53-0.39,2.06-0.09
			l19.34,11.16c0.53,0.3,0.46,0.84-0.15,1.19l-6.51,3.76C240.06,259.27,239.14,259.31,238.61,259.01z"/>
		<path class="st10" d="M363.17,330.92l-19.34-11.16c-0.53-0.3-0.46-0.84,0.15-1.19l6.51-3.76c0.61-0.35,1.53-0.39,2.06-0.09
			l19.34,11.16c0.53,0.3,0.46,0.84-0.15,1.19l-6.51,3.76C364.62,331.19,363.7,331.22,363.17,330.92z"/>
		<path class="st10" d="M322.63,320.44l-6.57-3.79c-0.53-0.3-0.46-0.84,0.15-1.19l7.75-4.47c0.61-0.35,1.53-0.39,2.06-0.09
			l6.57,3.79c0.53,0.3,0.46,0.84-0.15,1.19l-7.75,4.47C324.07,320.71,323.15,320.74,322.63,320.44z"/>
		<path class="st10" d="M249,277.93l-10.5-6.06c-0.53-0.3-0.46-0.84,0.15-1.19l7.75-4.47c0.61-0.35,1.53-0.39,2.06-0.09l10.5,6.06
			c0.53,0.3,0.46,0.84-0.15,1.19l-7.75,4.47C250.45,278.2,249.52,278.23,249,277.93z"/>
		<path class="st10" d="M312.86,314.8l-10.5-6.06c-0.53-0.3-0.46-0.84,0.15-1.19l7.75-4.47c0.61-0.35,1.53-0.39,2.06-0.09l10.5,6.06
			c0.53,0.3,0.46,0.84-0.15,1.19l-7.75,4.47C314.3,315.07,313.38,315.1,312.86,314.8z"/>
		<path class="st10" d="M263.63,286.38l-10.5-6.06c-0.53-0.3-0.46-0.84,0.15-1.19l7.75-4.47c0.61-0.35,1.53-0.39,2.06-0.09
			l10.5,6.06c0.53,0.3,0.46,0.84-0.15,1.19l-7.75,4.47C265.07,286.64,264.15,286.68,263.63,286.38z"/>
		<path class="st10" d="M263.15,274.61l45.65,26.36c0.57,0.33,0.57,0.86,0,1.18l-7.9,4.56c-0.57,0.33-1.48,0.33-2.05,0l-45.65-26.36
			L263.15,274.61z"/>
		<path class="st10" d="M350.96,331.05l7.31,4.22c0.43,0.25,0.38,0.69-0.12,0.97l-3.17,1.83c-0.5,0.29-1.25,0.32-1.69,0.07
			l-7.31-4.22c-0.43-0.25-0.38-0.69,0.12-0.97l3.17-1.83C349.77,330.83,350.53,330.8,350.96,331.05z"/>
		<path class="st10" d="M340.74,325.15l7.31,4.22c0.43,0.25,0.38,0.69-0.12,0.97l-3.17,1.83c-0.5,0.29-1.25,0.32-1.69,0.07
			l-7.31-4.22c-0.43-0.25-0.38-0.69,0.12-0.97l3.17-1.83C339.55,324.93,340.31,324.9,340.74,325.15z"/>
		<path class="st10" d="M330.6,319.3l7.31,4.22c0.43,0.25,0.38,0.69-0.12,0.97l-3.17,1.83c-0.5,0.29-1.25,0.32-1.69,0.07l-7.31-4.22
			c-0.43-0.25-0.38-0.69,0.12-0.97l3.17-1.83C329.41,319.08,330.17,319.05,330.6,319.3z"/>
		<path class="st10" d="M346.34,321.92l7.31,4.22c0.43,0.25,0.38,0.69-0.12,0.97l-3.17,1.83c-0.5,0.29-1.25,0.32-1.69,0.07
			l-7.31-4.22c-0.43-0.25-0.38-0.69,0.12-0.97l3.17-1.83C345.15,321.7,345.91,321.67,346.34,321.92z"/>
	</g>
	
		<radialGradient id="SVGID_00000106864296301429831810000014325412471400451719_" cx="227.1637" cy="97.7869" r="300.7065" gradientUnits="userSpaceOnUse">
		<stop  offset="0" style="stop-color:#F861FC"/>
		<stop  offset="0.4742" style="stop-color:#F861FC"/>
		<stop  offset="0.5068" style="stop-color:#E455FC"/>
		<stop  offset="0.6579" style="stop-color:#891DFA"/>
		<stop  offset="0.7262" style="stop-color:#6507FA"/>
		<stop  offset="1" style="stop-color:#2CFFF2"/>
	</radialGradient>
	<path style="fill:url(#SVGID_00000106864296301429831810000014325412471400451719_);" d="M453.64,310.08l-193.7-111.83
		c-3.05-1.76-4.64-6.04-3.55-9.57l43.8-142.22c1.08-3.53,4.43-4.96,7.48-3.2l193.7,111.83c3.05,1.76,4.64,6.04,3.55,9.57
		l-43.8,142.22C460.03,310.4,456.69,311.83,453.64,310.08z"/>
	
		<linearGradient id="SVGID_00000008863296325146295000000000890298792999651736_" gradientUnits="userSpaceOnUse" x1="260.2148" y1="176.7229" x2="501.1753" y2="176.7229">
		<stop  offset="0" style="stop-color:#2CFFF2"/>
		<stop  offset="1" style="stop-color:#6507FA"/>
	</linearGradient>
	<path style="fill:url(#SVGID_00000008863296325146295000000000890298792999651736_);" d="M451.81,305.1L263.94,196.54
		c-2.91-1.68-4.44-5.78-3.4-9.16l41.88-135.96c1.04-3.38,4.24-4.75,7.16-3.06l187.87,108.56c2.91,1.68,4.44,5.78,3.4,9.16
		l-41.88,135.96C457.93,305.41,454.73,306.78,451.81,305.1z"/>
	<path class="st13" d="M451.81,305.1L263.94,196.54c-2.91-1.68-4.44-5.78-3.4-9.16l41.88-135.96c1.04-3.38,4.24-4.75,7.16-3.06
		l187.87,108.56c2.91,1.68,4.44,5.78,3.4,9.16l-41.88,135.96C457.93,305.41,454.73,306.78,451.81,305.1z"/>
	<path class="st13" d="M451.81,305.1L263.94,196.54c-2.91-1.68-4.44-5.78-3.4-9.16l41.88-135.96c1.04-3.38,4.24-4.75,7.16-3.06
		l187.87,108.56c2.91,1.68,4.44,5.78,3.4,9.16l-41.88,135.96C457.93,305.41,454.73,306.78,451.81,305.1z"/>
	<path class="st14" d="M441.72,263.55l-127.18-73.43c-2-1.15-3.04-3.97-2.33-6.28l28.76-93.38c0.71-2.32,2.91-3.26,4.91-2.1
		l127.18,73.43c2,1.15,3.04,3.97,2.33,6.28l-28.76,93.38C445.92,263.76,443.72,264.7,441.72,263.55z"/>
	<g>
		
			<radialGradient id="SVGID_00000049203054477108221850000008392505967963076793_" cx="117.3893" cy="33.5725" r="468.3424" gradientUnits="userSpaceOnUse">
			<stop  offset="0" style="stop-color:#F861FC"/>
			<stop  offset="0.4742" style="stop-color:#F861FC"/>
			<stop  offset="0.5068" style="stop-color:#E455FC"/>
			<stop  offset="0.6579" style="stop-color:#891DFA"/>
			<stop  offset="0.7262" style="stop-color:#6507FA"/>
			<stop  offset="1" style="stop-color:#2CFFF2"/>
		</radialGradient>
		<path style="fill:url(#SVGID_00000049203054477108221850000008392505967963076793_);" d="M424.54,265.8l-127.18-73.43
			c-2-1.15-3.04-3.97-2.33-6.28l28.76-93.38c0.71-2.32,2.91-3.26,4.91-2.1l127.18,73.43c2,1.15,3.04,3.97,2.33,6.28l-28.76,93.38
			C428.73,266.01,426.54,266.95,424.54,265.8z"/>
	</g>
	<g class="st16">
		<path class="st10" d="M424.54,265.8l-127.18-73.43c-2-1.15-3.04-3.97-2.33-6.28l28.76-93.38c0.71-2.32,2.91-3.26,4.91-2.1
			l127.18,73.43c2,1.15,3.04,3.97,2.33,6.28l-28.76,93.38C428.73,266.01,426.54,266.95,424.54,265.8z"/>
	</g>
	<path class="st8" d="M455.88,164.03L328.7,90.6c-1.25-0.72-2.58-0.62-3.58,0.12c0.6-0.02,1.23,0.12,1.84,0.47l127.18,73.43
		c2,1.15,3.04,3.97,2.33,6.28l-28.76,93.38c-0.27,0.86-0.74,1.54-1.33,1.98c1.36-0.04,2.58-0.96,3.07-2.57l28.76-93.38
		C458.92,168,457.88,165.18,455.88,164.03z"/>
	<path class="st13" d="M264.13,342.06c-1.75,0-3.43-0.36-4.71-1.1v0l-50.96-29.42c-1.35-0.78-2.09-1.89-2.09-3.14
		c0-1.44,1.02-2.86,2.81-3.89l26.23-15.14c3.21-1.85,7.91-2.03,10.71-0.41l50.95,29.42c1.35,0.78,2.09,1.89,2.09,3.14
		c0,1.44-1.02,2.86-2.81,3.89l-26.23,15.14C268.39,341.54,266.21,342.06,264.13,342.06z M241.43,289.33c-1.84,0-3.8,0.44-5.29,1.3
		l-26.23,15.14c-1.32,0.76-2.08,1.72-2.08,2.62c0,0.89,0.74,1.51,1.36,1.86l50.96,29.42c2.31,1.33,6.54,1.15,9.24-0.41l26.23-15.14
		c1.32-0.76,2.07-1.72,2.07-2.62c0-0.89-0.74-1.51-1.36-1.86l-50.95-29.42C244.35,289.62,242.93,289.33,241.43,289.33z"/>
</g>
<g>
	<g>
		<path class="st8" d="M359.67,139.59l-7.86-4.54c-0.73-0.42-1.12-1.43-0.87-2.26l0,0c0.25-0.83,1.04-1.16,1.77-0.74l7.86,4.54
			c0.73,0.42,1.12,1.43,0.87,2.26l0,0C361.19,139.69,360.4,140.01,359.67,139.59z"/>
		<path class="st8" d="M378.4,150.41l-11.59-6.69c-0.73-0.42-1.12-1.43-0.87-2.26l0,0c0.25-0.83,1.04-1.16,1.77-0.74l11.59,6.69
			c0.73,0.42,1.12,1.43,0.87,2.26l0,0C379.92,150.5,379.13,150.83,378.4,150.41z"/>
		<path class="st8" d="M343.82,174.6l-7.86-4.54c-0.73-0.42-1.12-1.43-0.87-2.26l0,0c0.25-0.83,1.04-1.16,1.77-0.74l7.86,4.54
			c0.73,0.42,1.12,1.43,0.87,2.26l0,0C345.34,174.69,344.55,175.02,343.82,174.6z"/>
		<path class="st8" d="M360.51,184.24l-11.59-6.69c-0.73-0.42-1.12-1.43-0.87-2.26l0,0c0.25-0.83,1.04-1.16,1.77-0.74l11.59,6.69
			c0.73,0.42,1.12,1.43,0.87,2.26l0,0C362.03,184.33,361.24,184.66,360.51,184.24z"/>
		<path class="st8" d="M336.12,133.36l-4.91-2.84c-0.73-0.42-1.12-1.43-0.87-2.26l0,0c0.25-0.83,1.04-1.16,1.77-0.74l4.91,2.84
			c0.73,0.42,1.12,1.43,0.87,2.26l0,0C337.64,133.45,336.85,133.78,336.12,133.36z"/>
		<path class="st8" d="M350.9,149.25l-15.01-8.66c-0.73-0.42-1.12-1.43-0.87-2.26l0,0c0.25-0.83,1.04-1.16,1.77-0.74l15.01,8.66
			c0.73,0.42,1.12,1.43,0.87,2.26l0,0C352.42,149.34,351.63,149.67,350.9,149.25z"/>
		<path class="st8" d="M337.06,155.98l-4.91-2.84c-0.73-0.42-1.12-1.43-0.87-2.26l0,0c0.25-0.83,1.04-1.16,1.77-0.74l4.91,2.84
			c0.73,0.42,1.12,1.43,0.87,2.26h0C338.58,156.07,337.79,156.4,337.06,155.98z"/>
		<path class="st8" d="M362.32,200l-13.12-7.57c-0.73-0.42-1.12-1.43-0.87-2.26l0,0c0.25-0.83,1.04-1.16,1.77-0.74l13.12,7.57
			c0.73,0.42,1.12,1.43,0.87,2.26l0,0C363.84,200.1,363.05,200.43,362.32,200z"/>
		<path class="st8" d="M331.55,167.52l-3.15-1.82c-0.73-0.42-1.12-1.43-0.87-2.26l0,0c0.25-0.83,1.04-1.16,1.77-0.74l3.15,1.82
			c0.73,0.42,1.12,1.43,0.87,2.26l0,0C333.07,167.61,332.28,167.94,331.55,167.52z"/>
		<path class="st8" d="M328.57,180.52l-3.92-2.26c-0.73-0.42-1.12-1.43-0.87-2.26v0c0.25-0.83,1.04-1.16,1.77-0.74l3.92,2.26
			c0.73,0.42,1.12,1.43,0.87,2.26l0,0C330.09,180.61,329.3,180.94,328.57,180.52z"/>
		<path class="st8" d="M343.8,189.31l-10.32-5.96c-0.73-0.42-1.12-1.43-0.87-2.26l0,0c0.25-0.83,1.04-1.16,1.77-0.74l10.32,5.96
			c0.73,0.42,1.12,1.43,0.87,2.26l0,0C345.32,189.4,344.53,189.73,343.8,189.31z"/>
		<path class="st8" d="M330.2,188.82l-7.42-4.29c-0.73-0.42-1.12-1.43-0.87-2.26l0,0c0.25-0.83,1.04-1.16,1.77-0.74l7.42,4.29
			c0.73,0.42,1.12,1.43,0.87,2.26l0,0C331.72,188.91,330.93,189.24,330.2,188.82z"/>
		<path class="st8" d="M373.58,206.53l-4.77-2.75c-0.73-0.42-1.12-1.43-0.87-2.26l0,0c0.25-0.83,1.04-1.16,1.77-0.74l4.77,2.75
			c0.73,0.42,1.12,1.43,0.87,2.26l0,0C375.1,206.63,374.31,206.96,373.58,206.53z"/>
		<path class="st8" d="M355.33,166.53l-13.12-7.57c-0.73-0.42-1.12-1.43-0.87-2.26l0,0c0.25-0.83,1.04-1.16,1.77-0.74l13.12,7.57
			c0.73,0.42,1.12,1.43,0.87,2.26l0,0C356.85,166.62,356.06,166.95,355.33,166.53z"/>
	</g>
	<path class="st17" d="M356.88,160.06l-22.86-13.2c-0.73-0.42-1.12-1.43-0.87-2.26l0,0c0.25-0.83,1.04-1.16,1.77-0.74l22.87,13.2
		c0.73,0.42,1.12,1.43,0.87,2.26l0,0C358.41,160.16,357.61,160.49,356.88,160.06z"/>
	<path class="st17" d="M343.39,166.99l-13.12-7.57c-0.73-0.42-1.12-1.43-0.87-2.26l0,0c0.25-0.83,1.04-1.16,1.77-0.74l13.12,7.57
		c0.73,0.42,1.12,1.43,0.87,2.26l0,0C344.91,167.09,344.12,167.42,343.39,166.99z"/>
	<path class="st17" d="M365.28,172.27l-4.77-2.75c-0.73-0.42-1.12-1.43-0.87-2.26l0,0c0.25-0.83,1.04-1.16,1.77-0.74l4.77,2.75
		c0.73,0.42,1.12,1.43,0.87,2.26l0,0C366.8,172.36,366.01,172.69,365.28,172.27z"/>
	<path class="st17" d="M413.76,170.82l-28.23-16.3c-0.73-0.42-1.12-1.43-0.87-2.26l0,0c0.25-0.83,1.04-1.16,1.77-0.74l28.23,16.3
		c0.73,0.42,1.12,1.43,0.87,2.26l0,0C415.29,170.92,414.49,171.24,413.76,170.82z"/>
	<path class="st18" d="M342.3,181.08l-15.77-9.1c-0.73-0.42-1.12-1.43-0.87-2.26l0,0c0.25-0.83,1.04-1.16,1.77-0.74l15.77,9.1
		c0.73,0.42,1.12,1.43,0.87,2.26l0,0C343.82,181.17,343.03,181.5,342.3,181.08z"/>
	<path class="st18" d="M344.68,130.93l-11.59-6.69c-0.73-0.42-1.12-1.43-0.87-2.26l0,0c0.25-0.83,1.04-1.16,1.77-0.74l11.59,6.69
		c0.73,0.42,1.12,1.43,0.87,2.26l0,0C346.2,131.03,345.4,131.36,344.68,130.93z"/>
	<path class="st17" d="M327.78,194.78l-13.43-7.75c-0.73-0.42-1.12-1.43-0.87-2.26l0,0c0.25-0.83,1.04-1.16,1.77-0.74l13.43,7.75
		c0.73,0.42,1.12,1.43,0.87,2.26l0,0C329.3,194.87,328.51,195.2,327.78,194.78z"/>
</g>
<g>
	<path class="st8" d="M416.93,156.31l-5.75-3.32c-0.53-0.31-0.82-1.05-0.64-1.65l0,0c0.18-0.6,0.76-0.85,1.29-0.54l5.75,3.32
		c0.53,0.31,0.82,1.05,0.64,1.65l0,0C418.05,156.37,417.47,156.61,416.93,156.31z"/>
	<path class="st8" d="M427.9,162.64l-5.75-3.32c-0.53-0.31-0.82-1.05-0.64-1.65l0,0c0.18-0.6,0.76-0.85,1.29-0.54l5.75,3.32
		c0.53,0.31,0.82,1.05,0.64,1.65l0,0C429.01,162.7,428.43,162.94,427.9,162.64z"/>
	<path class="st8" d="M438.86,168.97l-5.75-3.32c-0.53-0.31-0.82-1.05-0.64-1.65l0,0c0.18-0.6,0.76-0.85,1.29-0.54l5.75,3.32
		c0.53,0.31,0.82,1.05,0.64,1.65l0,0C439.97,169.03,439.39,169.27,438.86,168.97z"/>
	<path class="st18" d="M444.25,172.08l-0.17-0.1c-0.53-0.31-0.82-1.05-0.64-1.65l0,0c0.18-0.6,0.76-0.85,1.29-0.54l0.17,0.1
		c0.53,0.31,0.82,1.05,0.64,1.65l0,0C445.36,172.15,444.78,172.39,444.25,172.08z"/>
</g>
<linearGradient id="SVGID_00000092442080490948844670000016559224830335543735_" gradientUnits="userSpaceOnUse" x1="3.0761" y1="200.8213" x2="604.2349" y2="237.6848">
	<stop  offset="0" style="stop-color:#F861FC"/>
	<stop  offset="1" style="stop-color:#2CFFF2"/>
</linearGradient>
<path style="fill:url(#SVGID_00000092442080490948844670000016559224830335543735_);" d="M147.62,239.34
	c-3.64,0-7.28-0.94-10.52-2.81l0,0L98.6,214.3c-1.67-0.96-2.67-2.69-2.67-4.62c0-1.93,1-3.65,2.67-4.62l38.5-22.23
	c6.49-3.75,14.55-3.75,21.04,0l38.5,22.23c1.67,0.96,2.67,2.69,2.67,4.62c0,1.93-1,3.65-2.67,4.62l-38.5,22.23
	C154.89,238.4,151.26,239.34,147.62,239.34z M138.35,234.36c5.72,3.3,12.82,3.3,18.54,0l38.5-22.23c0.88-0.51,1.41-1.43,1.41-2.45
	s-0.53-1.94-1.41-2.45l-38.5-22.23c-5.72-3.3-12.82-3.3-18.54,0l-38.5,22.23c-0.88,0.51-1.41,1.43-1.41,2.45
	c0,1.02,0.53,1.94,1.41,2.45L138.35,234.36z"/>
<g>
	<path class="st3" d="M166.12,221c-10.33,5.96-27.07,5.96-37.4,0s-10.33-15.63,0-21.59c10.33-5.96,27.07-5.96,37.4,0
		C176.45,205.37,176.45,215.04,166.12,221z"/>
	
		<radialGradient id="SVGID_00000021828790431936105000000015806956628418717099_" cx="151.7327" cy="87.2422" r="124.4266" gradientUnits="userSpaceOnUse">
		<stop  offset="0" style="stop-color:#F861FC"/>
		<stop  offset="0.0362" style="stop-color:#F861FC"/>
		<stop  offset="0.2563" style="stop-color:#F861FC"/>
		<stop  offset="0.3151" style="stop-color:#E657FC"/>
		<stop  offset="0.4335" style="stop-color:#B63FFB"/>
		<stop  offset="0.5834" style="stop-color:#711BFA"/>
		<stop  offset="0.6289" style="stop-color:#6C2CF9"/>
		<stop  offset="0.7192" style="stop-color:#5F58F8"/>
		<stop  offset="0.8456" style="stop-color:#499FF5"/>
		<stop  offset="1" style="stop-color:#2CFFF2"/>
	</radialGradient>
	<path style="fill:url(#SVGID_00000021828790431936105000000015806956628418717099_);" d="M186.62,101.39H111.3l7.01,81.55l0,0
		c0,4.53,2.99,9.06,8.98,12.51c11.97,6.91,31.38,6.91,43.35,0c5.99-3.46,8.98-7.99,8.98-12.52L186.62,101.39z"/>
	<path class="st13" d="M186.62,101.39H111.3l1.15,13.42c1.73,2.21,4.05,4.33,6.98,6.28c14.39,9.55,38.14,11.39,54.35,4.51
		l-2.51,59.65c-0.11,2.6-1.01,5.13-2.69,7.11c-2.44,2.87-7.14,6.25-16.18,8.16c6.66-0.43,13.12-2.11,18.23-5.06
		c5.99-3.46,8.98-7.99,8.98-12.52l5.62-65.4l0,0L186.62,101.39z"/>
	<ellipse class="st13" cx="148.96" cy="101.39" rx="37.66" ry="21.74"/>
	<ellipse class="st13" cx="148.96" cy="93.73" rx="32.44" ry="18.73"/>
	
		<linearGradient id="SVGID_00000089569010384593154830000015900405936496624561_" gradientUnits="userSpaceOnUse" x1="79.9347" y1="99.8875" x2="313.3202" y2="92.7858">
		<stop  offset="0" style="stop-color:#F861FC"/>
		<stop  offset="0.2426" style="stop-color:#F861FC"/>
		<stop  offset="0.2757" style="stop-color:#EE69FB"/>
		<stop  offset="0.3326" style="stop-color:#D27EFA"/>
		<stop  offset="0.4066" style="stop-color:#A5A1F8"/>
		<stop  offset="0.4936" style="stop-color:#67D1F5"/>
		<stop  offset="0.5689" style="stop-color:#2CFFF2"/>
	</linearGradient>
	<path style="fill:url(#SVGID_00000089569010384593154830000015900405936496624561_);" d="M188.85,100.37L188.85,100.37l0-0.06
		c0-0.04-0.01-0.07-0.01-0.11l-0.72-7.3l-0.03,0.08c-0.32-5.53-4.13-11-11.44-15.22c-15.29-8.83-40.08-8.83-55.37,0
		c-7.49,4.33-11.3,9.97-11.45,15.64l-0.01-0.02l-0.69,6.5c-0.02,0.17-0.04,0.34-0.05,0.51l-0.01,0.11l0.01,0
		c-0.41,6.19,3.47,12.47,11.66,17.2c15.59,9,40.88,9,56.47,0C185.44,112.92,189.32,106.6,188.85,100.37z"/>
	
		<linearGradient id="SVGID_00000083064604206321354840000018074768721211996555_" gradientUnits="userSpaceOnUse" x1="116.5243" y1="93.7292" x2="181.3997" y2="93.7292">
		<stop  offset="0" style="stop-color:#4F1FEC"/>
		<stop  offset="1" style="stop-color:#F861FC"/>
	</linearGradient>
	
		<ellipse style="fill:url(#SVGID_00000083064604206321354840000018074768721211996555_);" cx="148.96" cy="93.73" rx="32.44" ry="18.73"/>
	
		<linearGradient id="SVGID_00000008866329725587204870000005001645342663597479_" gradientUnits="userSpaceOnUse" x1="114.9852" y1="93.7292" x2="179.8605" y2="93.7292">
		<stop  offset="0" style="stop-color:#4F1FEC"/>
		<stop  offset="1" style="stop-color:#F861FC"/>
	</linearGradient>
	
		<ellipse style="fill:url(#SVGID_00000008866329725587204870000005001645342663597479_);" cx="147.42" cy="93.73" rx="32.44" ry="18.73"/>
	<path class="st13" d="M129.87,83.28c12.67-7.31,33.21-7.31,45.87,0c0.16,0.09,0.3,0.2,0.45,0.29c-1.22-1.09-2.65-2.12-4.3-3.08
		c-12.67-7.31-33.21-7.31-45.87,0c-12.51,7.22-12.64,18.86-0.45,26.2C117.43,99.43,118.86,89.63,129.87,83.28z"/>
	
		<linearGradient id="SVGID_00000157308494888002303010000016161306708944062651_" gradientUnits="userSpaceOnUse" x1="116.5297" y1="85.1781" x2="198.3265" y2="85.1781">
		<stop  offset="0" style="stop-color:#131060"/>
		<stop  offset="0.1857" style="stop-color:#141062"/>
		<stop  offset="0.2823" style="stop-color:#19106A"/>
		<stop  offset="0.3584" style="stop-color:#221078"/>
		<stop  offset="0.4238" style="stop-color:#2E0F8B"/>
		<stop  offset="0.4823" style="stop-color:#3E0FA3"/>
		<stop  offset="0.5359" style="stop-color:#510EC2"/>
		<stop  offset="0.5847" style="stop-color:#680DE5"/>
		<stop  offset="0.6071" style="stop-color:#740DF8"/>
		<stop  offset="0.6413" style="stop-color:#6834F7"/>
		<stop  offset="0.6931" style="stop-color:#5969F6"/>
		<stop  offset="0.7457" style="stop-color:#4B97F5"/>
		<stop  offset="0.7979" style="stop-color:#40BDF4"/>
		<stop  offset="0.8496" style="stop-color:#37DAF3"/>
		<stop  offset="0.9008" style="stop-color:#31EEF2"/>
		<stop  offset="0.9513" style="stop-color:#2DFBF2"/>
		<stop  offset="1" style="stop-color:#2CFFF2"/>
	</linearGradient>
	<path style="fill:url(#SVGID_00000157308494888002303010000016161306708944062651_);" d="M126.02,83.74
		c12.67-7.31,33.21-7.31,45.87,0c5.62,3.24,8.74,7.38,9.37,11.62c0.8-5.32-2.32-10.8-9.37-14.87c-12.67-7.31-33.21-7.31-45.87,0
		c-7.05,4.07-10.17,9.55-9.37,14.87C117.29,91.12,120.41,86.98,126.02,83.74z"/>
	
		<radialGradient id="SVGID_00000058550126792439290330000010458980749140962743_" cx="99.0697" cy="75.1939" r="145.6328" gradientUnits="userSpaceOnUse">
		<stop  offset="0" style="stop-color:#F861FC"/>
		<stop  offset="0.252" style="stop-color:#F861FC"/>
		<stop  offset="0.7357" style="stop-color:#2CFFF2"/>
	</radialGradient>
	<path style="fill:url(#SVGID_00000058550126792439290330000010458980749140962743_);" d="M176.89,77.93
		c-15.27-9-40.15-9.21-55.58-0.49s-15.55,23.09-0.28,32.09c15.27,9,40.15,9.21,55.57,0.49C192.03,101.29,192.16,86.93,176.89,77.93z
		 M171.9,106.97c-4.23,2.44-9.35,4.05-14.75,4.86l-0.59-1.93c-0.24-0.78-0.96-1.32-1.77-1.32h-11.65c-0.82,0-1.54,0.53-1.78,1.32
		l-0.59,1.93c-5.4-0.81-10.52-2.42-14.75-4.86c-12.67-7.31-12.67-19.17,0-26.48c12.67-7.31,33.21-7.31,45.87,0
		C184.57,87.8,184.57,99.66,171.9,106.97z"/>
	<g>
		<path class="st8" d="M171.9,79.1c-12.67-7.31-33.21-7.31-45.87,0c-6.64,3.83-9.79,8.91-9.47,13.93c0.29-4.56,3.44-9.07,9.47-12.55
			c12.67-7.31,33.21-7.31,45.87,0c6.03,3.48,9.18,7.99,9.47,12.55C181.69,88.01,178.54,82.93,171.9,79.1z"/>
		<path class="st8" d="M176.61,108.63c-15.42,8.73-40.31,8.51-55.58-0.49c-7.27-4.28-11.04-9.78-11.34-15.3
			c-0.3,5.99,3.47,12.05,11.34,16.69c15.27,9,40.15,9.21,55.58,0.49c8.08-4.57,11.96-10.7,11.62-16.78
			C187.95,98.86,184.08,104.4,176.61,108.63z"/>
	</g>
	<path class="st26" d="M152.67,112.84h-7.41c-0.36,0-0.65-0.29-0.65-0.65v-0.58c0-0.36,0.29-0.65,0.65-0.65h7.41
		c0.36,0,0.65,0.29,0.65,0.65v0.58C153.32,112.55,153.03,112.84,152.67,112.84z"/>
	
		<linearGradient id="SVGID_00000111886691213591498290000009776109793160656258_" gradientUnits="userSpaceOnUse" x1="143.8278" y1="111.5773" x2="155.1438" y2="111.5773">
		<stop  offset="0" style="stop-color:#131060"/>
		<stop  offset="0.1857" style="stop-color:#141062"/>
		<stop  offset="0.2823" style="stop-color:#19106A"/>
		<stop  offset="0.3584" style="stop-color:#221078"/>
		<stop  offset="0.4238" style="stop-color:#2E0F8B"/>
		<stop  offset="0.4823" style="stop-color:#3E0FA3"/>
		<stop  offset="0.5359" style="stop-color:#510EC2"/>
		<stop  offset="0.5847" style="stop-color:#680DE5"/>
		<stop  offset="0.6071" style="stop-color:#740DF8"/>
		<stop  offset="0.6413" style="stop-color:#6834F7"/>
		<stop  offset="0.6931" style="stop-color:#5969F6"/>
		<stop  offset="0.7457" style="stop-color:#4B97F5"/>
		<stop  offset="0.7979" style="stop-color:#40BDF4"/>
		<stop  offset="0.8496" style="stop-color:#37DAF3"/>
		<stop  offset="0.9008" style="stop-color:#31EEF2"/>
		<stop  offset="0.9513" style="stop-color:#2DFBF2"/>
		<stop  offset="1" style="stop-color:#2CFFF2"/>
	</linearGradient>
	<path style="fill:url(#SVGID_00000111886691213591498290000009776109793160656258_);" d="M152.44,110.96h-6.96
		c-0.49,0-0.88,0.39-0.88,0.88v0.12c0,0.08,0.03,0.16,0.05,0.23c0.1-0.37,0.43-0.65,0.83-0.65h6.96c0.4,0,0.73,0.28,0.83,0.65
		c0.02-0.08,0.05-0.15,0.05-0.23v-0.12C153.32,111.35,152.93,110.96,152.44,110.96z"/>
	<g>
		<path class="st17" d="M150.03,174.57c-0.85,3.21-4.15,5.12-7.36,4.27c-3.21-0.85-5.12-4.15-4.27-7.36
			c0.85-3.21,3.88-4.12,7.09-3.27C148.7,169.06,150.88,171.35,150.03,174.57z"/>
		<path class="st17" d="M154.77,168.23c-1.21,1.18-2.76,1.03-3.79-0.02c-1.03-1.05-1.15-2.61,0.07-3.79
			c1.21-1.18,3.51-1.77,4.54-0.71C156.61,164.75,155.98,167.04,154.77,168.23z"/>
		<path class="st17" d="M148.47,163.19c-0.3,1.67-1.65,2.44-3.1,2.19c-1.45-0.26-2.45-1.45-2.15-3.12c0.3-1.67,1.83-3.48,3.28-3.22
			C147.95,159.29,148.77,161.53,148.47,163.19z"/>
		<path class="st17" d="M140.72,162.42c0.64,1.57-0.08,2.95-1.44,3.51c-1.36,0.56-2.84,0.09-3.49-1.48
			c-0.64-1.57-0.32-3.92,1.04-4.48C138.19,159.41,140.07,160.86,140.72,162.42z"/>
	</g>
</g>
<path class="st28" d="M151.43,111.9c0,0,21.06-7.06,12.53-31.25c-8.53-24.2-25.13-31.57-18.44-50.93c0,0-10.48,15.67-0.69,36.87
	c9.79,21.2,11.94,18.76,11.83,28.9c-0.14,12.05-9.87,16.41-9.87,16.41H151.43z"/>
<path class="st28" d="M153.32,33.09c0,0-2.19-14.47,11.38-29.06c0,0-12.01,26.82-8.08,40.06C156.63,44.08,153.45,35.67,153.32,33.09
	z"/>
</svg>
