<?xml version="1.0" encoding="utf-8"?>
<!-- Generator: Adobe Illustrator 27.5.0, SVG Export Plug-In . SVG Version: 6.00 Build 0)  -->
<svg version="1.1" id="Ñëîé_1" xmlns="http://www.w3.org/2000/svg" xmlns:xlink="http://www.w3.org/1999/xlink" x="0px" y="0px"
	 viewBox="0 0 600 450" style="enable-background:new 0 0 600 450;" xml:space="preserve">
<style type="text/css">
	.st0{fill:#2CFFF2;}
</style>
<g>
	<g>
		<path class="st0" d="M108.6,154.8l126.7,267.1h-50.5L69.7,222.4L108.6,154.8 M110,120.4l-58.8,102l124.4,215.5h85.1L110,120.4
			L110,120.4z"/>
	</g>
	<g>
		<path class="st0" d="M375.9,22.9L300,183L224.1,22.9H375.9 M401.2,6.9H198.8L300,220.3L401.2,6.9L401.2,6.9z"/>
	</g>
	<g>
		<path class="st0" d="M491.4,154.8l39,67.6L415.2,421.9h-50.5L491.4,154.8 M490,120.4L339.3,437.9h85.1l124.4-215.5L490,120.4
			L490,120.4z"/>
	</g>
	<g>
		<g>
			<g>
				<path class="st0" d="M415.2,46l42.6,73.7L319.9,410.3h-39.7L142.2,119.8L184.8,46l111.6,235.2l3.6,7.6l3.6-7.6L415.2,46
					 M414.8,37.4L300,279.5l-114.8-242l-47.4,82.2l139.9,294.7h44.8l139.9-294.7L414.8,37.4L414.8,37.4z"/>
			</g>
			<g>
				<path class="st0" d="M416.2,71.8l28,48.5l-131.9,278h-24.6l-131.9-278l28-48.5l101.8,214.5l14.5,30.5l14.5-30.5L416.2,71.8
					 M414.8,37.4L300,279.5l-114.8-242l-47.4,82.2l139.9,294.7h44.8l139.9-294.7L414.8,37.4L414.8,37.4z"/>
			</g>
		</g>
	</g>
</g>
</svg>
